<?xml version="1.0" encoding="UTF-8" standalone="no"?>
<!-- Created with Inkscape (http://www.inkscape.org/) -->

<svg
   version="1.1"
   id="svg1"
   width="682.66669"
   height="682.66669"
   viewBox="0 0 682.66669 682.66669"
   xmlns="http://www.w3.org/2000/svg"
   xmlns:svg="http://www.w3.org/2000/svg">
  <defs
     id="defs1" />
  <g
     id="g1">
    <path
       style="fill:#a0e8f8;fill-opacity:1;stroke-width:1.16186"
       d="m 371.59426,672.05186 c -32.18338,-4.13299 -66.44627,-17.61027 -84.14188,-33.09712 -5.04485,-4.41516 -9.79084,-10.55724 -12.78046,-16.54 l -4.7556,-9.51681 V 570.122 527.34607 l -11.411,-9.52267 c -14.37183,-11.99355 -31.17701,-32.07186 -57.6037,-68.82316 -11.4067,-15.86316 -28.10847,-38.1709 -37.11503,-49.57271 -24.76074,-31.34579 -30.06572,-44.5814 -24.93822,-62.21939 5.24556,-18.04413 18.50293,-29.02743 34.96176,-28.96475 18.13183,0.069 39.5313,11.32082 63.49069,33.38318 10.15048,9.34679 13.18888,11.4006 14.19812,9.59719 1.79369,-3.20514 5.53234,-25.87626 6.71001,-40.68932 0.54188,-6.81625 3.37785,-55.26584 6.30211,-107.66576 2.92427,-52.39992 5.9409,-97.38379 6.70364,-99.96414 6.24107,-21.113825 22.7806,-33.708894 44.40146,-33.8123 12.9522,-0.06192 22.30688,3.59554 30.72366,12.012315 12.60053,12.60053 14.97621,23.064535 14.97621,65.964915 v 32.34971 l 11.6796,-0.0458 c 13.60215,-0.0533 24.35028,4.24813 33.05456,13.22867 5.174,5.3382 5.21399,5.3493 11.40674,3.16438 14.73211,-5.1978 32.13685,-1.44361 44.3927,9.57543 l 7.60271,6.8355 9.65943,-2.47464 c 21.66744,-5.55094 42.77255,4.69123 52.22872,25.34624 3.34431,7.30493 4.19336,12.95809 6.64641,44.25384 1.54676,19.7335 3.97497,45.63872 5.39601,57.56715 3.82863,32.13824 2.46164,104.66083 -2.40902,127.80469 -3.10963,14.77605 -3.51278,22.36795 -4.40098,82.87939 l -0.97778,66.61336 -4.15003,7.8642 c -12.82129,24.29602 -52.40049,44.49818 -98.0937,50.06934 -16.07711,1.96019 -46.29808,1.93618 -61.75714,-0.049 z m 50.65342,-32.33574 c 8.37749,-0.81476 21.27414,-2.91061 28.65923,-4.65742 17.21565,-4.07206 40.07262,-15.09014 46.50691,-22.41839 l 4.87464,-5.5519 v -37.27777 -37.27777 l -5.03473,3.37124 c -42.13913,28.2162 -127.02646,30.6828 -182.24303,5.29552 -6.29721,-2.89533 -11.69985,-5.26422 -12.00588,-5.26422 -0.30602,0 -0.5564,15.68311 -0.5564,34.85136 v 34.85136 l 5.43514,6.01607 c 10.21678,11.30875 38.22864,22.94106 63.53856,26.38523 25.10841,3.41676 30.95194,3.60954 50.82556,1.67669 z M 455.03947,530.6397 c 16.16169,-4.85696 29.53657,-11.9086 39.91594,-21.04489 6.75789,-5.94854 7.33557,-7.02163 7.36507,-13.6816 0.0175,-3.97474 1.77237,-15.5922 3.89947,-25.81657 6.51986,-31.33916 7.96713,-62.29965 4.85975,-103.96128 -1.45472,-19.5041 -3.656,-49.05577 -4.89175,-65.67039 -3.76928,-50.67833 -3.84489,-51.20809 -7.88458,-55.2478 -4.8461,-4.8461 -12.04746,-4.76872 -16.99881,0.18265 l -3.80246,3.80245 -0.005,40.73554 c -0.005,37.64379 -0.23488,41.11127 -3.02422,45.68589 -6.18345,10.14116 -19.52026,10.1271 -27.03905,-0.0285 -3.10163,-4.18935 -3.25143,-6.38519 -3.56641,-52.27626 -0.21427,-31.22007 -0.92147,-49.01068 -2.03061,-51.08314 -3.40869,-6.36916 -12.7469,-7.27319 -18.94138,-1.8337 -2.3317,2.0475 -2.71174,5.32723 -2.71617,23.44126 -0.002,11.58338 -0.46754,32.21004 -1.03267,45.83702 -1.01064,24.36942 -1.09765,24.84647 -5.2977,29.04653 -7.5469,7.5469 -21.03919,5.19461 -26.01525,-4.53559 -1.16668,-2.28131 -1.73047,-19.34052 -1.73047,-52.36067 0,-39.95485 -0.4175,-49.78428 -2.26643,-53.3597 -3.84641,-7.43814 -12.61128,-8.61113 -18.71748,-2.50494 l -3.80244,3.80246 v 47.39635 c 0,39.01966 -0.40913,48.1875 -2.31488,51.87281 -5.352,10.34964 -17.25037,12.54856 -25.93263,4.79259 l -5.05918,-4.51943 -0.77457,-105.30859 c -0.74135,-100.7913 -0.90117,-105.44842 -3.72568,-108.56836 -5.97904,-6.604405 -18.19072,-2.74823 -20.21364,6.38302 -0.42951,1.93873 -2.89172,42.56349 -5.47157,90.27724 -6.8725,127.10513 -8.45612,143.68516 -15.49274,162.20404 -8.15566,21.46396 -25.24637,29.47252 -43.95262,20.59583 -3.2188,-1.52743 -12.60188,-8.81355 -20.85126,-16.19139 -17.52782,-15.67601 -27.20313,-22.56324 -36.11383,-25.70712 -7.58957,-2.67776 -10.64257,-1.10957 -10.64257,5.4666 0,5.05862 3.20898,9.94466 23.92689,36.43147 8.66392,11.0764 25.46486,33.63397 37.33542,50.12794 11.87057,16.49396 27.14004,35.92868 33.93217,43.18827 21.49689,22.97638 47.54013,40.22559 74.29233,49.20601 20.33094,6.82486 34.29532,8.42066 69.08193,7.89439 29.26976,-0.44282 32.84971,-0.80868 45.69985,-4.67044 z M 200.20467,168.78742 c -6.71766,-6.71764 -4.85174,-9.82854 22.05774,-36.77516 26.52366,-26.56023 28.92515,-28.06041 36.46518,-22.77918 2.51261,1.7599 3.44298,3.97466 3.44298,8.19606 0,5.41063 -1.584,7.35735 -24.50839,30.12054 -21.3235,21.17355 -25.14845,24.33604 -29.4338,24.33604 -2.85989,0 -6.22473,-1.29931 -8.02371,-3.0983 z m 189.44238,-19.03613 c -19.17839,-19.17838 -22.13444,-22.79087 -22.13444,-27.04973 0,-5.91848 5.07639,-11.23259 10.7301,-11.23259 5.97711,0 49.68666,43.93297 49.68666,49.94064 0,5.77505 -5.01343,10.47611 -11.17224,10.47611 -4.33652,0 -7.81888,-2.84324 -27.11008,-22.13443 z m -2.92546,-47.21365 c -2.32677,-1.55362 -5.26664,-7.359873 -5.26664,-10.401601 0,-1.372785 1.7111,-4.207086 3.80245,-6.298436 3.76446,-3.764463 4.09021,-3.802456 32.60252,-3.802456 28.51231,0 28.83805,0.03799 32.60251,3.802456 2.09135,2.09135 3.80245,4.925651 3.80245,6.298436 0,3.041728 -2.93988,8.847981 -5.26664,10.401601 -0.93748,0.62597 -14.94973,1.13814 -31.13832,1.13814 -16.1886,0 -30.20085,-0.51217 -31.13833,-1.13814 z M 179.27308,95.957492 c -3.99745,-4.417151 -3.6483,-12.18692 0.7061,-15.7129 3.14076,-2.543231 6.63281,-2.856888 31.80681,-2.856888 26.26308,0 28.56962,0.228852 32.36047,3.210733 4.99398,3.928274 5.4412,10.921339 0.98349,15.379039 -2.88475,2.884749 -5.16382,3.098299 -33.06658,3.098299 -28.06491,0 -30.14751,-0.19805 -32.79029,-3.118283 z M 375.25836,74.724046 c -4.78977,-1.729221 -7.74575,-5.705062 -7.74575,-10.418127 0,-4.217407 3.32381,-8.157648 25.2798,-29.968278 26.93399,-26.7556425 29.54755,-28.332214 36.394,-21.95378 2.10126,1.957626 3.3904,5.013478 3.3904,8.036804 0,4.233803 -3.22288,8.096066 -24.39907,29.239462 -23.5731,23.536594 -27.94015,26.86155 -32.91938,25.063919 z M 223.84728,47.413655 c -24.10757,-24.254728 -25.60577,-27.07123 -18.291,-34.385982 7.40204,-7.4020384 10.27142,-5.8764635 34.47986,18.331978 20.18248,20.18248 22.13443,22.620343 22.13443,27.644554 0,6.86874 -3.8789,10.637769 -10.94789,10.637769 -4.7379,0 -7.55753,-2.289481 -27.3754,-22.228319 z"
       id="path1" />
  </g>
</svg>
